<svg width="56" height="56" viewBox="8 -64 56 56" fill="#808080" xmlns="http://www.w3.org/2000/svg">
    <path
        d="M33.0469-45.7031L33.0469-34.7344C33.0469-33.6094 33.6094-32.6250 34.4531-32.0625L43.8750-26.5781C44.8594-26.0156 46.2656-26.2969 46.9688-27.4219C47.5313-28.4063 47.2500-29.8125 46.1250-30.5156L37.5469-35.5781L37.5469-45.8438C37.5469-46.9688 36.4219-47.9531 35.2969-47.9531C34.0313-47.9531 33.0469-46.9688 33.0469-45.7031ZM63-43.4531L63-59.3438C63-60.7500 61.3125-61.3125 60.4688-60.4688L55.1250-55.1250C49.6406-60.4688 41.9063-63.5625 33.4688-62.8594C20.9531-61.7344 10.5469-51.6094 9.1406-39.0938C7.3125-22.7813 20.1094-9 36-9C49.7813-9 61.1719-19.2656 62.8594-32.6250C63-34.4531 61.5938-36 59.7656-36C58.3594-36 57.0938-34.8750 56.8125-33.4688C55.5469-22.9219 46.5469-14.9063 35.7188-15.0469C24.6094-15.1875 15.1875-24.6094 15.0469-35.7188C14.7656-47.3906 24.3281-56.9531 36-56.9531C41.7656-56.9531 47.1094-54.5625 50.9063-50.9063L44.5781-44.5781C43.5938-43.5938 44.2969-42.0469 45.5625-42.0469L61.4531-42.0469C62.2969-42.0469 63-42.6094 63-43.4531Z" />
</svg>